#!OML:ASF H:\Punching\Project 1\Capture day 1\Session 1\female.ASF
:FULLY-SPECIFIED
:DEGREES
1490
root 2.5326 14.7742 -0.367581 13.3747 -21.896 -4.04034
lowerback 2.34373 1.73449 -3.29843
upperback -6.3145 2.08933 -0.136659
thorax -8.05179 1.2222 1.5065
lowerneck -4.54344 7.8641 20.1525
upperneck 34.6314 7.68144 0.101284
head 13.5564 5.89306 -2.33927
rclavicle -6.80341e-014 -2.62396e-014
rhumerus 3.90228 27.1665 -82.1916
rradius 120.872
rwrist -47.9364
rhand -11.2621 -19.6087
rfingers 7.12502
rthumb 14.768 -49.0626
lclavicle -6.80341e-014 -2.62396e-014
lhumerus 18.8531 -35.4208 78.7164
lradius 137.412
lwrist 16.2002
lhand -21.3293 10.0337
lfingers 7.12502
lthumb 5.0564 39.9534
rfemur 2.29366 13.1263 5.19492
rtibia 7.19564
rfoot -12.0146 -32.1584
rtoes -19.0282
lfemur -37.0427 9.93567 -4.09001
ltibia 47.1962
lfoot -13.7574 21.1709
ltoes -4.12516
1491
root 2.5401 14.7875 -0.366627 13.09 -23.2205 -3.85877
lowerback 2.63205 1.37926 -3.77188
upperback -6.22082 1.55962 -0.25744
thorax -8.10373 0.985081 1.69022
lowerneck -4.18387 8.37647 20.9778
upperneck 34.5287 8.46806 -0.26811
head 13.6213 6.28125 -2.50039
rclavicle 2.26987e-014 -5.56597e-015
rhumerus 2.50641 27.831 -82.6341
rradius 123.013
rwrist -49.1069
rhand -11.3915 -19.507
rfingers 7.12502
rthumb 14.6433 -48.97
lclavicle 2.26987e-014 -5.56597e-015
lhumerus 18.8658 -34.7953 78.2495
lradius 137.757
lwrist 16.1965
lhand -21.2341 9.92366
lfingers 7.12502
lthumb 5.14836 39.8411
rfemur 2.08456 14.3566 4.61843
rtibia 6.97792
rfoot -11.7733 -32.0873
rtoes -19.3773
lfemur -36.1543 10.2458 -4.27759
ltibia 47.1096
lfoot -14.095 21.8839
ltoes -3.6947
1492
root 2.54777 14.7858 -0.368938 12.8479 -24.2322 -3.73561
lowerback 2.92583 0.980316 -4.07598
upperback -6.14943 0.980382 -0.36704
thorax -8.16913 0.714349 1.79895
lowerneck -3.77411 8.82343 21.7648
upperneck 34.3469 9.19854 -0.666063
head 13.6409 6.63463 -2.67637
rclavicle -3.77256e-014 -7.95139e-016
rhumerus 1.23163 28.4984 -83.0862
rradius 124.768
rwrist -49.8824
rhand -11.6651 -19.4188
rfingers 7.12502
rthumb 14.3797 -48.9007
lclavicle -3.77256e-014 -7.95139e-016
lhumerus 18.7973 -34.1601 77.8214
lradius 138.126
lwrist 16.2164
lhand -21.2245 9.94305
lfingers 7.12502
lthumb 5.15754 39.8603
rfemur 2.02817 15.2989 4.19989
rtibia 6.65555
rfoot -11.5537 -31.9911
rtoes -19.6116
lfemur -35.5346 10.3809 -4.37813
ltibia 47.1467
lfoot -14.3864 22.5305
ltoes -3.24763
1493
root 2.55594 14.7808 -0.371994 12.6838 -24.9369 -3.71692
lowerback 3.20183 0.549089 -4.16481
upperback -6.09423 0.373883 -0.45413
thorax -8.23238 0.418287 1.81716
lowerneck -3.34239 9.20662 22.5042
upperneck 34.1022 9.86656 -1.08504
head 13.625 6.95137 -2.86332
rclavicle -2.80131e-014 -1.03368e-014
rhumerus 0.101758 29.2111 -83.5324
rradius 126.142
rwrist -50.2463
rhand -12.0188 -19.2229
rfingers 7.12502
rthumb 14.0389 -48.7288
lclavicle -2.80131e-014 -1.03368e-014
lhumerus 18.6624 -33.501 77.4473
lradius 138.51
lwrist 16.336
lhand -21.2651 10.03
lfingers 7.12502
lthumb 5.11834 39.9482
rfemur 2.16778 15.962 4.00624
rtibia 6.11989
rfoot -11.2689 -31.871
rtoes -19.7465
lfemur -35.1504 10.3673 -4.36675
ltibia 47.2876
lfoot -14.6436 23.099
ltoes -2.84011
1494
root 2.56466 14.7729 -0.375054 12.6135 -25.3543 -3.82654
lowerback 3.44154 0.0980023 -4.0109
upperback -6.07104 -0.238254 -0.510427
thorax -8.30699 0.106368 1.7356
lowerneck -2.84062 9.5123 23.1641
upperneck 33.8094 10.4599 -1.49849
head 13.5625 7.22699 -3.05115
rclavicle -8.09116e-015 -1.27222e-014
rhumerus -0.916321 29.9967 -83.9753
rradius 127.188
rwrist -50.2355
rhand -12.3676 -18.9802
rfingers 7.12502
rthumb 13.7028 -48.5091
lclavicle -8.09116e-015 -1.27222e-014
lhumerus 18.4251 -32.8575 77.1649
lradius 138.89
lwrist 16.5549
lhand -21.3788 10.1863
lfingers 7.12502
lthumb 5.00863 40.1071
rfemur 2.36386 16.3685 4.01714
rtibia 5.62232
rfoot -11.0662 -31.7234
rtoes -19.7969
lfemur -35.0053 10.2458 -4.22491
ltibia 47.5719
lfoot -14.8931 23.5623
ltoes -2.50737
1495
root 2.57349 14.7627 -0.377509 12.6312 -25.5212 -4.04736
lowerback 3.62226 -0.361939 -3.65934
upperback -6.06997 -0.840694 -0.522905
thorax -8.37649 -0.211292 1.59098
lowerneck -2.30075 9.75005 23.7005
upperneck 33.4996 10.9797 -1.87766
head 13.4662 7.4615 -3.22118
rclavicle 8.27131e-015 9.54166e-015
rhumerus -1.79553 30.8662 -84.3872
rradius 127.972
rwrist -49.9271
rhand -12.6393 -18.7409
rfingers 7.12502
rthumb 13.4409 -48.2872
lclavicle 8.27131e-015 9.54166e-015
lhumerus 18.1007 -32.225 76.9939
lradius 139.242
lwrist 16.8543
lhand -21.4858 10.3216
lfingers 7.12502
lthumb 4.90531 40.2448
rfemur 2.82751 16.5471 4.25744
rtibia 4.74725
rfoot -10.6842 -31.5487
rtoes -19.8009
lfemur -35.0543 10.0567 -3.97344
ltibia 47.943
lfoot -15.1071 23.9133
ltoes -2.26679
1496
root 2.58165 14.751 -0.379333 12.7203 -25.4797 -4.34171
lowerback 3.73021 -0.801974 -3.19726
upperback -6.05842 -1.39938 -0.492931
thorax -8.40267 -0.513716 1.42545
lowerneck -1.87571 9.93704 24.1223
upperneck 33.2278 11.4013 -2.20853
head 13.3862 7.64751 -3.36547
rclavicle -9.01054e-015 9.54166e-015
rhumerus -2.45956 31.7572 -84.7131
rradius 128.561
rwrist -49.4011
rhand -12.786 -18.5483
rfingers 7.12502
rthumb 13.2994 -48.104
lclavicle -9.01054e-015 9.54166e-015
lhumerus 17.8117 -31.6154 76.9058
lradius 139.53
lwrist 17.2377
lhand -21.5625 10.4347
lfingers 7.12502
lthumb 4.83122 40.3597
rfemur 3.6911 16.5288 4.71226
rtibia 3.21591
rfoot -9.95089 -31.3449
rtoes -19.7775
lfemur -35.2651 9.84078 -3.65149
ltibia 48.3712
lfoot -15.2814 24.142
ltoes -2.103
1497
root 2.58866 14.7388 -0.380392 12.8592 -25.2612 -4.67069
lowerback 3.75704 -1.20124 -2.67345
upperback -6.04651 -1.89197 -0.433075
thorax -8.39303 -0.787115 1.2489
lowerneck -1.5538 10.0614 24.415
upperneck 33.0107 11.6982 -2.45373
head 13.3167 7.77602 -3.47244
rclavicle -4.36332e-014 5.56597e-015
rhumerus -2.95436 32.6313 -84.9815
rradius 129.014
rwrist -48.7119
rhand -12.795 -18.3786
rfingers 7.12502
rthumb 13.2908 -47.9348
lclavicle -4.36332e-014 5.56597e-015
lhumerus 17.5657 -31.0758 76.9107
lradius 139.724
lwrist 17.6637
lhand -21.6048 10.527
lfingers 7.12502
lthumb 4.79038 40.4529
rfemur 5.49075 16.3076 5.45736
rtibia -3.18055e-015
rfoot -8.24884 -31.0615
rtoes -19.7676
lfemur -35.6048 9.62369 -3.29932
ltibia 48.823
lfoot -15.4024 24.2469
ltoes -2.04048
1498
root 2.59417 14.7268 -0.380853 13.0241 -24.8915 -4.99384
lowerback 3.71254 -1.54686 -2.1648
upperback -6.02777 -2.30841 -0.33944
thorax -8.34323 -1.02151 1.10603
lowerneck -1.38917 10.1305 24.5669
upperneck 32.8712 11.862 -2.5993
head 13.2728 7.84327 -3.53372
rclavicle -1.06412e-014 -1.43125e-014
rhumerus -3.26813 33.4809 -85.1806
rradius 129.357
rwrist -47.8848
rhand -12.6991 -18.1864
rfingers 7.12502
rthumb 13.3833 -47.7365
lclavicle -1.06412e-014 -1.43125e-014
lhumerus 17.3881 -30.6321 77.0254
lradius 139.807
lwrist 18.0883
lhand -21.6112 10.5925
lfingers 7.12502
lthumb 4.78424 40.5184
rfemur 5.60598 15.9784 5.816
rtibia 3.18055e-015
rfoot -8.43839 -30.8245
rtoes -19.7974
lfemur -36.043 9.41574 -2.95624
ltibia 49.2677
lfoot -15.4682 24.2287
ltoes -2.0397
1499
root 2.59798 14.7158 -0.38093 13.1988 -24.3838 -5.28494
lowerback 3.60719 -1.83027 -1.71981
upperback -5.99758 -2.64244 -0.212437
thorax -8.24979 -1.21066 1.02191
lowerneck -1.42107 10.1484 24.5816
upperneck 32.8199 11.8866 -2.64557
head 13.2646 7.84653 -3.54906
rclavicle 1.32937e-015 0
rhumerus -3.38176 34.3138 -85.3082
rradius 129.592
rwrist -46.924
rhand -12.5984 -17.9108
rfingers 7.12502
rthumb 13.4803 -47.4546
lclavicle 1.32937e-015 0
lhumerus 17.301 -30.3152 77.2527
lradius 139.767
lwrist 18.4603
lhand -21.5683 10.6116
lfingers 7.12502
lthumb 4.82567 40.5367
rfemur 5.75539 15.5068 6.18589
rtibia -5.40694e-014
rfoot -8.64017 -30.5788
rtoes -19.8417
lfemur -36.5596 9.21827 -2.6478
ltibia 49.6811
lfoot -15.4689 24.0913
ltoes -2.10345
1500
root 2.60017 14.7059 -0.381054 13.3642 -23.7363 -5.52758
lowerback 3.47355 -2.04423 -1.35558
upperback -5.97339 -2.8877 -0.0536388
thorax -8.14697 -1.34983 1.00483
lowerneck -1.61629 10.0962 24.4509
upperneck 32.8452 11.7571 -2.5973
head 13.277 7.77787 -3.52397
rclavicle 3.8527e-014 -6.36111e-015
rhumerus -3.34519 35.139 -85.379
rradius 129.718
rwrist -45.7964
rhand -12.5406 -17.581
rfingers 7.12502
rthumb 13.536 -47.121
lclavicle 3.8527e-014 -6.36111e-015
lhumerus 17.2777 -30.2038 77.6039
lradius 139.619
lwrist 18.674
lhand -21.5735 10.673
lfingers 7.12502
lthumb 4.82061 40.5982
rfemur 5.95181 14.8906 6.55593
rtibia -4.45278e-014
rfoot -8.85331 -30.3288
rtoes -19.9038
lfemur -37.1371 9.02098 -2.389
ltibia 50.047
lfoot -15.4012 23.8358
ltoes -2.21727
1501
root 2.60065 14.6973 -0.381851 13.5076 -22.9485 -5.70332
lowerback 3.33171 -2.1818 -1.08419
upperback -5.95717 -3.037 0.123884
thorax -8.04635 -1.43515 1.04814
lowerneck -1.96986 9.96851 24.1824
upperneck 32.9239 11.4703 -2.46185
head 13.3004 7.63524 -3.46334
rclavicle -7.85199e-015 -1.74931e-014
rhumerus -3.14727 35.952 -85.3855
rradius 129.702
rwrist -44.4863
rhand -12.6265 -17.1619
rfingers 7.12502
rthumb 13.4532 -46.7074
lclavicle -7.85199e-015 -1.74931e-014
lhumerus 17.3298 -30.3086 78.0662
lradius 139.378
lwrist 18.748
lhand -21.5976 10.7605
lfingers 7.12502
lthumb 4.79737 40.6862
rfemur 6.1998 14.1263 6.90912
rtibia -6.36111e-015
rfoot -9.09302 -30.0768
rtoes -19.943
lfemur -37.7687 8.81 -2.19789
ltibia 50.3537
lfoot -15.2537 23.4726
ltoes -2.39939
